<svg xmlns="http://www.w3.org/2000/svg" width="180" height="100" fill="none" viewBox="0 0 180 100">
    <path fill="#FF9200" d="M94.625 69.817c.662.46.83 1.36.376 2.02-.454.66-1.351.828-2.013.376-.663-.456-.832-1.351-.378-2.02.454-.65 1.356-.828 2.015-.376zm7.334-10.695c.659.451.83 1.355.376 2.01-.454.666-1.356.828-2.015.379-.662-.454-.83-1.356-.379-2.015.457-.66 1.358-.83 2.018-.374zm-3.67 5.344c.664.456.826 1.36.379 2.02-.454.661-1.354.825-2.02.376-.657-.463-.825-1.356-.371-2.022.45-.655 1.353-.826 2.013-.374zM79.49 63.331c.664.46.833 1.36.377 2.02-.457.659-1.347.828-2.015.376-.662-.457-.828-1.352-.377-2.02.452-.65 1.352-.828 2.016-.376zm7.334-10.696c.657.452.828 1.356.376 2.011-.451.666-1.355.828-2.015.379-.663-.455-.832-1.356-.376-2.016.454-.659 1.358-.83 2.015-.374zM.164 48.456c.266-.642 6.534-15.787 9.23-21.53 1.79-3.818 5.334-7.664 8.912-6.99 1.842.333 4.13 1.886 4.569 7.375.685 8.581 8.73 12.423 16.401 12.423 8.616 0 13.21-3.28 21.826-12.52 7.58-8.125 16.268-5.831 19.96-3.403l3.803 1.773 1.873-3.52c.56-1.053 1.866-1.453 2.925-.893 1.053.56 1.453 1.87.893 2.925l-1.764 3.319 9.234 4.307 1.686-3.172c.56-1.053 1.868-1.455 2.925-.893 1.053.56 1.453 1.87.893 2.925l-1.578 2.971 9.234 4.307 1.501-2.822c.56-1.052 1.866-1.455 2.925-.893 1.053.56 1.453 1.87.893 2.926l-1.395 2.62 9.235 4.307 1.314-2.473c.56-1.053 1.866-1.453 2.925-.893 1.053.56 1.453 1.87.893 2.925l-1.208 2.27 21.618 10.084 22.877 5.092c.763.17 1.375.739 1.6 1.487l4.999 16.622c.058.201.088.409.088.62V97.03c0 1.196-.968 2.162-2.162 2.162H2.162C.967 99.191 0 98.225 0 97.029V49.284c0-.283.054-.564.164-.828zm18.4-20.801c-.217-2.713-.91-3.444-1.03-3.466-.676-.097-2.71 1.334-4.226 4.57-1.624 3.466-4.666 10.638-6.796 15.712 5.719-1.878 10.22.526 14.279 2.697 2.895 1.548 5.651 3.048 8.693 2.925 5.146-.143 7.204-3.639 8.017-6.1-10.518-.663-18.204-7.188-18.937-16.338zm117.825 27.25c-.036-.177-.008-.348-.002-.52l-10.155-4.735-2.095 3.937c-.389.73-1.137 1.146-1.911 1.146-.342 0-.69-.08-1.014-.253-1.053-.563-1.453-1.87-.893-2.926l1.987-3.738-9.234-4.307-1.91 3.59c-.389.73-1.137 1.145-1.911 1.145-.341 0-.689-.08-1.014-.253-1.053-.56-1.453-1.87-.893-2.925l1.806-3.386-9.235-4.307-1.723 3.24c-.389.73-1.137 1.145-1.911 1.145-.342 0-.69-.082-1.014-.253-1.053-.56-1.453-1.87-.893-2.925l1.615-3.038-9.234-4.307-1.537 2.889c-.39.73-1.135 1.146-1.912 1.146-.341 0-.69-.082-1.013-.253-1.053-.56-1.456-1.87-.893-2.925l1.429-2.688-3.75-1.75c-.107-.049-.211-.107-.308-.176-.299-.206-7.403-4.94-14.51 2.68-.72.77-1.397 1.466-2.078 2.17l76.163 31.952-1.957-9.374zm3.027 14.512L75.601 42.651c-.074.065-.121.151-.206.207L52.627 58.29c-1.135.768-1.728 2.638-1.245 3.92l5.785 15.361h83.951l-1.702-8.153zm31.166-4.47l-21.871-4.87c-.154-.037-.303-.086-.445-.151l-7.105-3.312 4.374 20.956h28.846l-3.799-12.624zM4.324 94.866h170.803V81.895H4.324v12.972zm0-17.297H52.55l-5.21-13.837c-1.192-3.165.067-7.128 2.864-9.026l20.704-14.028-11.81-4.953c-.08-.035-.133-.1-.209-.14-5.509 5.117-10.278 7.794-16.883 8.35-1.017 4.297-4.428 10.258-12.398 10.48-.131.003-.261.005-.39.005-4.031 0-7.302-1.749-10.465-3.44-4.711-2.518-8.428-4.505-14.095-.815-.106.067-.225.085-.335.134v27.27h.002zM83.16 57.98c.662.456.826 1.36.377 2.02-.452.661-1.356.825-2.022.376-.657-.463-.826-1.356-.37-2.022.446-.655 1.347-.826 2.015-.374zm-7.331 10.704c.66.454.824 1.356.374 2.015-.45.664-1.36.83-2.015.374-.657-.451-.83-1.349-.38-2.01.458-.664 1.36-.828 2.02-.379z"/>
</svg>
