<svg xmlns="http://www.w3.org/2000/svg" width="22" height="29" fill="none" viewBox="0 0 22 29">
    <path fill="#000" d="M20.07 8.005c-.66-.782-1.556-1.179-2.664-1.179h-.267L17.137 2.6c0-1.126-.733-2.123-1.807-2.46-1.076-.34-2.246.06-2.89.984-.768-.634-1.832-.77-2.735-.35-.903.42-1.483 1.323-1.49 2.319-.76-.39-1.661-.38-2.41.026-.749.407-1.25 1.156-1.337 2.004-.801-.416-1.76-.385-2.532.083C1.165 5.673.694 6.51.696 7.413v9.422c0 .191.03 4.706 2.678 7.864v-.002c.461.55.715 1.243.716 1.96v1.64c0 .388.315.703.703.703.388 0 .703-.315.703-.703v-1.642c-.001-1.048-.371-2.062-1.045-2.863-2.313-2.758-2.35-6.92-2.35-6.961v-2.94c.844.435 1.86.37 2.642-.17.355.695 1.005 1.192 1.769 1.35.763.16 1.558-.035 2.162-.528.577.842 1.598 1.264 2.602 1.073-1.87 1.414-2.315 3.556-2.34 3.674v.002c-.037.182.003.372.107.527.104.155.264.262.447.297.045.01.091.014.136.014.337 0 .625-.238.69-.568.005-.03.613-2.958 3.569-3.628h.001c.378-.086.616-.463.53-.841-.086-.379-.463-.616-.842-.53-.298.067-.592.157-.88.265.444-.475.689-1.1.687-1.75v-.836l2.34.5-.343 1.317.002-.001c-.088.372.137.746.508.842.37.096.749-.122.853-.49l.517-1.994.009-.042c0-.007.004-.014.005-.02.04-.182.005-.373-.097-.53-.101-.156-.261-.265-.443-.305l-3.909-.835h-.006l-.388-.083c-.914-.196-1.582-1.055-1.582-2.04h-.001c-.009-.17.12-.317.292-.33h6.268c.685 0 1.205.223 1.592.68.626.74.944 2.109.945 4.07 0 1.601-.203 3.545-.639 6.113-.397 2.345-1.932 4.43-2.812 5.463h-.002c-.49.58-.76 1.316-.76 2.076v1.665c0 .388.315.703.703.703.388 0 .703-.315.703-.703v-1.663c0-.427.15-.84.428-1.165.973-1.145 2.671-3.463 3.124-6.14 1.038-6.099.848-9.592-.617-11.325zm-6.692-5.406c0-.65.527-1.175 1.177-1.175.649 0 1.176.525 1.176 1.175v4.227H13.38V2.6h-.002zM3.277 12.77c-.648 0-1.174-.526-1.176-1.175V7.407c.016-.638.538-1.149 1.177-1.149s1.16.51 1.177 1.15v4.186c-.001.65-.528 1.175-1.178 1.175zm3.76.95c-.648 0-1.174-.524-1.175-1.172V5.384c0-.65.525-1.176 1.175-1.176s1.176.526 1.176 1.176v7.163c-.002.648-.528 1.171-1.176 1.173zm4.936-1.782v1.142c0 .648-.527 1.175-1.177 1.175S9.62 13.727 9.62 13.08v-3.4c.357 1.1 1.24 1.947 2.353 2.258h.001zM9.62 7.788V3.113H9.62c0-.65.527-1.177 1.177-1.177s1.176.527 1.176 1.177v3.716h-.831c-.649.003-1.24.374-1.522.957l.001.002z"/>
</svg>
