<svg xmlns="http://www.w3.org/2000/svg" width="45" height="17" fill="none" viewBox="0 0 45 17">
    <path fill="#000" d="M10.234.176c-2.178.023-4.417.77-6.34 2.373C1.968 4.16.946 6.326.94 8.506c-.005 2.18 1.011 4.34 2.956 5.941C7.704 17.58 13 17.68 17.293 14.095L22.5 9.76c2.084 1.7 4.16 3.425 6.247 5.115 3.436 2.553 8.516 2.78 12.357-.429 1.928-1.61 2.95-3.776 2.956-5.956.005-2.18-1.01-4.341-2.956-5.941C37.295-.584 32-.683 27.706 2.902L22.5 7.235c-2.085-1.7-4.162-3.424-6.248-5.114C14.533.844 12.412.153 10.234.176zM34.612 2.09c1.864-.027 3.654.672 5.237 1.975 1.543 1.27 2.255 2.848 2.251 4.425-.006 1.578-.731 3.174-2.266 4.456-3.16 2.64-7.172 2.395-9.923.353l-5.88-4.809 4.93-4.088c1.852-1.545 3.787-2.285 5.65-2.312zm-24.332.03c1.744-.013 3.434.556 4.809 1.578l5.88 4.808-4.93 4.088c-3.7 3.09-7.72 2.958-10.888.353-1.543-1.27-2.255-2.864-2.251-4.441.006-1.577.731-3.174 2.266-4.456 1.581-1.32 3.37-1.916 5.115-1.93z"/>
</svg>
