<svg xmlns="http://www.w3.org/2000/svg" width="23" height="23" fill="none" viewBox="0 0 23 23">
    <g fill="#000" clip-path="url(#clip0)">
        <path d="M19.167 0H3.834c-1.017 0-1.992.404-2.71 1.123C.403 1.842 0 2.817 0 3.833v15.333c0 1.017.405 1.992 1.123 2.71.719.72 1.694 1.124 2.71 1.124h15.334c1.017 0 1.991-.404 2.71-1.123.719-.719 1.123-1.694 1.123-2.71V3.833c0-1.017-.404-1.992-1.123-2.711C21.158.404 20.184 0 19.167 0zm1.916 19.166c0 .509-.201.997-.56 1.356-.36.36-.848.562-1.356.562H3.834c-1.06 0-1.917-.858-1.917-1.918V3.834c0-1.06.858-1.918 1.917-1.918h15.333c.508 0 .996.203 1.355.562.36.36.562.847.562 1.356l-.001 15.332z"/>
        <path d="M11.5 5.75c-1.524 0-2.987.606-4.065 1.685C6.355 8.513 5.75 9.975 5.75 11.5c0 1.525.606 2.987 1.685 4.066 1.078 1.079 2.54 1.684 4.065 1.684 1.525 0 2.988-.605 4.066-1.684 1.079-1.079 1.684-2.541 1.684-4.066s-.605-2.987-1.684-4.065C14.488 6.355 13.025 5.75 11.5 5.75zm0 9.584c-1.017 0-1.992-.405-2.71-1.123-.719-.72-1.123-1.694-1.123-2.711S8.07 9.508 8.79 8.79c.718-.72 1.693-1.124 2.71-1.124s1.992.405 2.71 1.123c.72.72 1.124 1.694 1.124 2.711s-.404 1.992-1.123 2.71c-.719.72-1.694 1.124-2.71 1.124zM19.166 5.271c0 .793-.643 1.438-1.437 1.438-.793 0-1.438-.645-1.438-1.438 0-.794.645-1.437 1.438-1.437.794 0 1.437.643 1.437 1.437z"/>
    </g>
    <defs>
        <clipPath id="clip0">
            <path fill="#fff" d="M0 0H23V23H0z"/>
        </clipPath>
    </defs>
</svg>
