<svg width="128" height="30" viewBox="0 0 128 30" fill="none" xmlns="http://www.w3.org/2000/svg">
    <path d="M15.92 10.16V6.88C15.92 4 14 0.52 8.36 0.52C2.76 0.52 0.68 3.88 0.68 7.32V9.72C0.68 13 2.44 15.04 5 16.76L7.44 18.4C8.64 19.2 9.04 19.64 9.04 21.12V22.92C9.04 23.48 8.96 23.96 8.24 23.96C7.56 23.96 7.44 23.48 7.44 22.92V19.44H0.24V22.92C0.24 26.12 2.04 29.48 8.24 29.48C14.4 29.48 16.2 25.84 16.2 22.36V20.12C16.2 16.24 14.08 14.6 11.64 12.96L9.36 11.44C7.92 10.48 7.68 10.12 7.68 8.8V7.04C7.68 6.48 7.76 6 8.4 6C9 6 9.12 6.48 9.12 7.04V10.16H15.92ZM27.3234 29H32.7234V0.999998H26.2834V12.36L22.8434 0.999998H17.3234V29H23.7634V17.56L27.3234 29ZM43.6356 29H50.7556L47.1556 14.4L50.5156 0.999998H43.7156L41.3956 11.92V0.999998H34.3156V29H41.3956V18.6L43.6356 29ZM58.7478 19.08C59.4678 19.08 59.7078 19.6 59.7078 20.28V25.52C59.7078 26.88 59.7878 28.28 60.0678 29H67.0278C66.7878 28.12 66.6678 26.76 66.6678 25.52V20.84C66.6678 18.68 65.7878 17.08 64.0678 16.12C65.7878 15.2 66.6678 13.68 66.6678 11.4V7.44C66.6678 3.28 64.2678 0.999998 59.1878 0.999998H51.3078V29H58.3478V19.08H58.7478ZM58.7478 13.56H58.3478V6.48H58.7478C59.4678 6.48 59.7078 7 59.7078 7.68V12.36C59.7078 13 59.5078 13.56 58.7478 13.56Z"
          fill="black"/>
    <path d="M80.2256 18.36V12.6H75.1456V6.8H81.0656V0.999998H68.0656V29H75.1456V18.36H80.2256ZM82.4016 29H95.2016V23.2H89.4816V0.999998H82.4016V29ZM96.3078 29H109.068V23.2H103.388V17.36H108.148V11.96H103.388V6.8H109.028V0.999998H96.3078V29ZM120.094 29H127.014L122.374 0.999998H113.814L109.174 29H115.894L116.414 24.32H119.574L120.094 29ZM116.934 19.4L117.934 10.12L118.974 19.4H116.934Z"
          fill="#FF9200"/>
</svg>
