<svg xmlns="http://www.w3.org/2000/svg" width="19" height="20" fill="none" viewBox="0 0 19 20">
    <path fill="#000" fill-rule="evenodd" d="M4.1 9.222c0-2.573 2.073-4.666 4.623-4.666 2.55 0 4.623 2.093 4.623 4.666 0 2.574-2.073 4.667-4.623 4.667-2.55 0-4.623-2.093-4.623-4.667zm12.103 6.45l-2.616-2.641c.811-1.053 1.3-2.373 1.3-3.809C14.888 5.792 12.123 3 8.724 3 5.324 3 2.56 5.791 2.56 9.222c0 3.431 2.765 6.222 6.164 6.222 1.423 0 2.73-.493 3.773-1.312l2.617 2.64c.15.152.348.228.545.228.197 0 .395-.076.545-.228.301-.304.301-.796 0-1.1z" clip-rule="evenodd"/>
</svg>
