<svg xmlns="http://www.w3.org/2000/svg" width="34" height="27" fill="none" viewBox="0 0 34 27">
    <path fill="#000" d="M33.77 8.73L28.5.583h-23L.23 8.728c0 1.82 1.533 3.354 3.355 3.354 1.82 0 3.355-1.437 3.355-3.354 0 1.82 1.533 3.354 3.355 3.354 1.82 0 3.355-1.437 3.355-3.354 0 1.82 1.532 3.354 3.354 3.354 1.82 0 3.355-1.437 3.355-3.354 0 1.82 1.533 3.354 3.355 3.354 1.82 0 3.355-1.437 3.355-3.354 0 1.82 1.532 3.354 3.355 3.354 1.814 0 3.347-1.437 3.347-3.352zM30.418 15.917c-1.055 0-2.012-.192-2.875-.575v7.283H6.458v-7.283c-.862.383-1.82.575-2.875.575-.287 0-.67 0-.957-.095v10.636h28.748l.002-10.638c-.288.097-.67.097-.958.097z"/>
</svg>
