<svg xmlns="http://www.w3.org/2000/svg" width="26" height="23" fill="none" viewBox="0 0 26 23">
    <path fill="#000" d="M.563 0C.252 0 0 .252 0 .563c0 .312.252.564.563.564H4.05l2.966 14.03c-.03.32.267.632.59.616h14.082c.297.004.571-.265.571-.564 0-.298-.274-.567-.57-.563H8.061l-.475-2.253h15.227c.252-.004.49-.194.546-.44l1.971-8.45c.074-.327-.21-.684-.546-.686H5.562L5.061.44c-.056-.249-.3-.442-.555-.44H.563zM5.8 3.943h18.281l-1.716 7.323H7.35L5.8 3.943zm4.621 13.52c-1.393 0-2.535 1.142-2.535 2.535 0 1.392 1.142 2.534 2.535 2.534 1.393 0 2.535-1.142 2.535-2.534 0-1.393-1.142-2.535-2.535-2.535zm8.45 0c-1.393 0-2.535 1.142-2.535 2.535 0 1.392 1.142 2.534 2.535 2.534 1.393 0 2.535-1.142 2.535-2.534 0-1.393-1.142-2.535-2.535-2.535zm-8.45 1.126c.785 0 1.409.624 1.409 1.409 0 .784-.624 1.408-1.409 1.408-.784 0-1.408-.624-1.408-1.408 0-.785.624-1.409 1.408-1.409zm8.45 0c.784 0 1.408.624 1.408 1.409 0 .784-.624 1.408-1.408 1.408-.785 0-1.408-.624-1.408-1.408 0-.785.623-1.409 1.408-1.409z"/>
</svg>
