<svg xmlns="http://www.w3.org/2000/svg" width="41" height="41" fill="none" viewBox="0 0 41 41">
    <path fill="#000" d="M21.149 37.2c-7.244 0-11.924-4.68-11.924-11.924 0-6.578 5.272-12.294 5.497-12.534.206-.22.515-.309.808-.232.292.077.518.309.588.602.433 1.807 1.067 3.623 1.482 4.305.656-.62 1.942-2.356 2.288-5.526.433-3.954-.813-6.915-.826-6.945-.148-.345-.043-.745.251-.972.295-.23.708-.23 1.004 0 .175.134 4.3 3.361 7.271 7.507 1.975 2.755 4.597 7.137 4.597 13.35 0 7.282-4.537 12.369-11.037 12.369zm-6.214-22.137c-1.472 1.931-4.07 5.946-4.07 10.211 0 6.344 3.94 10.284 10.284 10.284 5.531 0 9.396-4.413 9.396-10.73 0-4.368-1.363-8.308-4.289-12.393-1.56-2.177-3.494-4.12-4.925-5.433.247 1.333.407 3.082.19 5.066-.518 4.732-2.938 7.037-3.814 7.157-.037.005-.114.01-.152.01-.407.001-1.422.001-2.62-4.173z"/>
</svg>
