<svg xmlns="http://www.w3.org/2000/svg" width="26" height="26" fill="none" viewBox="0 0 26 26">
    <path fill="#000" d="M12.568.2C5.808.2.3 5.708.3 12.468c0 6.76 5.508 12.267 12.268 12.267 6.76 0 12.268-5.508 12.268-12.267C24.835 5.708 19.328.2 12.567.2zm0 23.584c-6.234 0-11.316-5.083-11.316-11.316 0-6.235 5.082-11.292 11.316-11.292 6.233 0 11.292 5.057 11.292 11.292 0 6.233-5.057 11.316-11.292 11.316z"/>
    <path fill="#000" d="M13.069 12.092c-.652-.225-1.102-.451-1.352-.701-.25-.25-.376-.576-.376-.976 0-.451.126-.777.35-1.027.25-.25.601-.376 1.077-.376.451 0 .827.175 1.077.526.25.35.376.801.376 1.352h1.201c0-.827-.2-1.477-.575-1.978-.376-.5-.902-.776-1.602-.876V6.66h-.976v1.352c-.676.075-1.202.35-1.602.776-.376.426-.576.976-.576 1.653 0 .701.2 1.252.626 1.677.425.426 1.05.751 1.877 1.002.6.2 1.027.45 1.302.7.25.251.4.577.4.952 0 .451-.15.801-.45 1.052-.3.25-.701.375-1.226.375-.451 0-.851-.125-1.177-.4-.277-.277-.427-.727-.427-1.353H9.839v.025c-.025.851.2 1.502.652 1.928.45.45 1.027.701 1.727.776v1.177h.976v-1.177c.725-.075 1.327-.325 1.727-.75.425-.426.626-.977.626-1.678s-.2-1.252-.6-1.653c-.4-.375-1.027-.726-1.878-1.001z"/>
</svg>
