<svg xmlns="http://www.w3.org/2000/svg" width="24" height="23" fill="none" viewBox="0 0 24 23">
    <g clip-path="url(#clip0)">
        <path fill="#000" d="M10.752.002C4.823.002 0 4.695 0 10.464s4.823 10.461 10.752 10.461c2.667 0 5.109-.952 6.99-2.522l4.004 3.896c.15.147.357.236.585.236.457 0 .826-.361.826-.805 0-.223-.092-.424-.242-.57l-4.006-3.896c1.615-1.83 2.594-4.205 2.594-6.8C21.503 4.695 16.68.002 10.75.002h.001zm0 1.609c5.034 0 9.098 3.954 9.098 8.852s-4.064 8.852-9.098 8.852c-5.034 0-9.097-3.954-9.097-8.852S5.718 1.61 10.752 1.61z"/>
    </g>
    <defs>
        <clipPath id="clip0">
            <path fill="#fff" d="M0 0H23.158V22.532H0z"/>
        </clipPath>
    </defs>
</svg>
